<svg xmlns="http://www.w3.org/2000/svg" width="186" height="55" viewBox="0 0 186 55" fill="none"><path d="M184.443 48.5093C184.443 49.2015 184.306 49.887 184.041 50.5265C183.776 51.1659 183.387 51.7469 182.897 52.2361C182.407 52.7253 181.826 53.1132 181.186 53.3776C180.546 53.642 179.86 53.7777 179.168 53.777H6.55491C5.15588 53.7785 3.81354 53.2244 2.82311 52.2365C1.83268 51.2487 1.27526 49.908 1.27344 48.5093V6.50114C1.27526 5.10184 1.83246 3.76046 2.82269 2.77152C3.81292 1.78258 5.15524 1.22693 6.55491 1.22656H179.167C179.859 1.22656 180.545 1.363 181.185 1.62809C181.825 1.89318 182.407 2.28173 182.897 2.77153C183.387 3.26134 183.775 3.84282 184.04 4.48275C184.305 5.12268 184.441 5.80854 184.441 6.50114L184.443 48.5093Z" fill="white"></path><path d="M179.166 55H6.55276C4.82931 54.9996 3.17639 54.3158 1.95669 53.0985C0.736998 51.8812 0.0501543 50.2298 0.046875 48.5068L0.046875 6.50004C0.0494246 4.77619 0.735815 3.12373 1.95547 1.90517C3.17513 0.686614 4.82846 0.00145499 6.55276 0L179.164 0C180.889 0.002181 182.541 0.687574 183.761 1.90598C184.98 3.12438 185.667 4.77641 185.67 6.50004V48.5068C185.673 52.0883 182.75 55 179.166 55Z" fill="#A6A6A6"></path><path d="M184.443 48.5093C184.443 49.2015 184.306 49.887 184.041 50.5265C183.776 51.1659 183.387 51.7469 182.897 52.2361C182.407 52.7253 181.826 53.1132 181.186 53.3776C180.546 53.642 179.86 53.7777 179.168 53.777H6.55491C5.15588 53.7785 3.81354 53.2244 2.82311 52.2365C1.83268 51.2487 1.27526 49.908 1.27344 48.5093V6.50114C1.27526 5.10184 1.83246 3.76046 2.82269 2.77152C3.81292 1.78258 5.15524 1.22693 6.55491 1.22656H179.167C179.859 1.22656 180.545 1.363 181.185 1.62809C181.825 1.89318 182.407 2.28173 182.897 2.77153C183.387 3.26134 183.775 3.84282 184.04 4.48275C184.305 5.12268 184.441 5.80854 184.441 6.50114L184.443 48.5093Z" fill="black"></path><path d="M41.4984 27.2144C41.4585 22.7816 45.129 20.625 45.2969 20.5246C43.2181 17.4946 39.9961 17.0807 38.8639 17.0476C36.1578 16.7629 33.5329 18.6665 32.1544 18.6665C30.7484 18.6665 28.6256 17.0752 26.3378 17.1219C23.3937 17.1673 20.6394 18.8714 19.1289 21.5176C16.0114 26.9132 18.3364 34.8423 21.3232 39.2036C22.8172 41.341 24.5631 43.7245 26.8482 43.6406C29.0837 43.5498 29.9188 42.2171 32.6167 42.2171C35.2897 42.2171 36.0739 43.6406 38.4044 43.587C40.8037 43.5498 42.3143 41.4414 43.756 39.2861C45.4826 36.8393 46.176 34.4269 46.2035 34.3031C46.1485 34.2839 41.5452 32.5262 41.4984 27.2144ZM37.0961 14.1786C38.2985 12.6753 39.1212 10.6301 38.8928 8.55469C37.1525 8.63171 34.976 9.75814 33.7227 11.2284C32.6139 12.524 31.6234 14.6476 31.8793 16.6447C33.8342 16.7905 35.8414 15.6585 37.0961 14.1786Z" fill="white"></path><path d="M179.168 0H86.7109L122.925 55H179.168C180.892 54.9985 182.544 54.3138 183.764 53.0958C184.984 51.8778 185.67 50.2261 185.674 48.5027V6.50004C185.671 4.7763 184.984 3.12406 183.765 1.90558C182.545 0.687094 180.892 0.00181814 179.168 0Z" fill="url(#paint0_linear_11195_93979)"></path><path d="M73.8862 43.3401H70.7618L69.0504 37.9638H63.1017L61.4715 43.3401H58.4297L64.3247 25.0366H67.965L73.8862 43.3401ZM68.5345 35.7081L66.9868 30.9287C66.8231 30.4404 66.5149 29.2906 66.0637 27.4806H66.0087C65.8271 28.2591 65.5368 29.4089 65.1392 30.9287L63.6176 35.7081H68.5345ZM89.0166 36.5787C89.0166 38.8234 88.4071 40.5976 87.1868 41.9001C86.0945 43.0595 84.7366 43.6386 83.1174 43.6386C81.3688 43.6386 80.1114 43.0155 79.3479 41.7667V48.6917H76.4148V34.4799C76.4148 33.0702 76.3776 31.6246 76.3061 30.142H78.8856L79.0493 32.2339H79.1043C80.0825 30.6577 81.5669 29.8697 83.559 29.8697C85.1163 29.8697 86.4164 30.4844 87.4565 31.7154C88.4952 32.9491 89.0166 34.5693 89.0166 36.5787ZM86.0285 36.686C86.0285 35.4014 85.7396 34.3424 85.159 33.5075C84.5248 32.6397 83.6732 32.205 82.6056 32.205C81.882 32.205 81.2244 32.4471 80.6369 32.9244C80.0481 33.4058 79.6629 34.0343 79.4827 34.8128C79.4022 35.1039 79.3565 35.4035 79.3465 35.7054V37.9074C79.3465 38.866 79.6409 39.6761 80.2297 40.339C80.8185 40.9992 81.5834 41.3307 82.5244 41.3307C83.6292 41.3307 84.489 40.9029 85.104 40.0543C85.7203 39.203 86.0285 38.0807 86.0285 36.686ZM104.201 36.5787C104.201 38.8234 103.591 40.5976 102.371 41.9001C101.277 43.0595 99.9207 43.6386 98.3001 43.6386C96.5515 43.6386 95.2941 43.0155 94.5305 41.7667V48.6917H91.5975V34.4799C91.5975 33.0702 91.5603 31.6246 91.4888 30.142H94.0683L94.232 32.2339H94.287C95.2638 30.6577 96.7482 29.8697 98.7417 29.8697C100.298 29.8697 101.598 30.4844 102.641 31.7154C103.678 32.9491 104.201 34.5693 104.201 36.5787ZM101.211 36.686C101.211 35.4014 100.921 34.3424 100.34 33.5075C99.7061 32.6397 98.8573 32.205 97.7897 32.205C97.066 32.205 96.4084 32.4471 95.8182 32.9244C95.2294 33.4058 94.8456 34.0343 94.6654 34.8128C94.5759 35.1759 94.5278 35.4716 94.5278 35.7054V37.9074C94.5278 38.866 94.8236 39.6761 95.4096 40.339C95.9985 40.9978 96.7634 41.3307 97.7071 41.3307C98.8132 41.3307 99.6731 40.9029 100.287 40.0543C100.903 39.203 101.211 38.0807 101.211 36.686ZM121.177 38.2058C121.177 39.7641 120.633 41.0308 119.55 42.0087C118.358 43.076 116.695 43.6111 114.563 43.6111C112.593 43.6111 111.013 43.2315 109.822 42.4709L110.5 40.0268C111.786 40.7888 113.199 41.1684 114.737 41.1684C115.844 41.1684 116.703 40.9181 117.317 40.4216C117.932 39.9237 118.243 39.258 118.243 38.4273C118.243 37.6832 117.986 37.0601 117.481 36.5526C116.973 36.0465 116.134 35.5747 114.955 35.1415C111.749 33.9463 110.145 32.1982 110.145 29.8985C110.145 28.3966 110.712 27.167 111.843 26.2056C112.974 25.2456 114.473 24.7656 116.339 24.7656C118.005 24.7656 119.393 25.0558 120.495 25.6349L119.759 28.0253C118.722 27.4641 117.551 27.1835 116.241 27.1835C115.207 27.1835 114.395 27.438 113.814 27.9441C113.326 28.3966 113.078 28.9482 113.078 29.6028C113.078 30.3249 113.36 30.9246 113.922 31.3949C114.409 31.8282 115.297 32.2999 116.582 32.8061C118.159 33.4415 119.317 34.1815 120.059 35.0314C120.806 35.8814 121.177 36.9418 121.177 38.2058ZM130.9 32.3426H127.667V38.7505C127.667 40.3803 128.236 41.1931 129.378 41.1931C129.902 41.1931 130.337 41.1491 130.681 41.057L130.762 43.2837C130.184 43.4997 129.424 43.6083 128.481 43.6083C127.323 43.6083 126.418 43.2548 125.764 42.5479C125.113 41.8409 124.786 40.6567 124.786 38.9898V32.3371H122.86V30.1365H124.786V27.7199L127.667 26.8507V30.1365H130.9V32.3426ZM145.458 36.6324C145.458 38.6611 144.877 40.3267 143.719 41.6291C142.507 42.9701 140.894 43.6386 138.884 43.6386C136.945 43.6386 135.402 42.9963 134.252 41.713C133.102 40.4271 132.527 38.8069 132.527 36.8524C132.527 34.8073 133.122 33.1321 134.306 31.8296C135.493 30.5257 137.092 29.8738 139.102 29.8738C141.039 29.8738 142.595 30.5175 143.773 31.8021C144.898 33.0482 145.458 34.6573 145.458 36.6324ZM142.417 36.6998C142.417 35.4908 142.156 34.4538 141.632 33.5859C141.017 32.5379 140.136 32.0139 138.996 32.0139C137.821 32.0139 136.92 32.5379 136.306 33.5859C135.781 34.4538 135.519 35.5087 135.519 36.7548C135.519 37.9651 135.781 39.0049 136.306 39.87C136.941 40.9181 137.825 41.4421 138.971 41.4421C140.092 41.4421 140.971 40.9071 141.607 39.8439C142.146 38.9554 142.417 37.9115 142.417 36.6998ZM154.996 32.7208C154.691 32.6658 154.381 32.6386 154.071 32.6397C153.04 32.6397 152.242 33.0275 151.68 33.8087C151.193 34.4964 150.948 35.3657 150.948 36.4151V43.3401H148.015V34.2984C148.018 32.9129 147.989 31.5275 147.93 30.1434H150.485L150.592 32.6685H150.673C150.984 31.8007 151.471 31.1006 152.14 30.5766C152.752 30.1187 153.495 29.8707 154.26 29.8697C154.531 29.8697 154.776 29.8889 154.993 29.9233L154.996 32.7208ZM168.114 36.1166C168.121 36.5624 168.085 37.0078 168.006 37.4466H159.207C159.24 38.7505 159.666 39.749 160.484 40.4367C161.225 41.0501 162.184 41.3582 163.362 41.3582C164.665 41.3582 165.853 41.1519 166.922 40.7351L167.382 42.7693C166.132 43.314 164.658 43.5849 162.956 43.5849C160.909 43.5849 159.302 42.9825 158.133 41.7804C156.966 40.577 156.381 38.9595 156.381 36.9336C156.381 34.9448 156.925 33.2875 158.013 31.9657C159.152 30.5546 160.691 29.849 162.628 29.849C164.531 29.849 165.971 30.5546 166.95 31.9657C167.724 33.0839 168.114 34.4703 168.114 36.1166ZM165.317 35.356C165.337 34.4854 165.145 33.7358 164.747 33.1018C164.239 32.2848 163.458 31.8777 162.411 31.8777C161.452 31.8777 160.671 32.2752 160.076 33.0729C159.588 33.707 159.298 34.4689 159.208 35.3533L165.317 35.356Z" fill="white"></path><path d="M62.2496 18.5502C61.4338 18.5502 60.7281 18.5103 60.1406 18.4429V9.59372C60.9622 9.46684 61.7925 9.4043 62.6238 9.40667C65.9875 9.40667 67.5366 11.0613 67.5366 13.7584C67.5366 16.8695 65.7069 18.5502 62.2496 18.5502ZM62.7422 10.5414C62.2882 10.5414 61.9016 10.5689 61.581 10.6349V17.3619C61.7544 17.3894 62.0873 17.4017 62.555 17.4017C64.759 17.4017 66.0137 16.1474 66.0137 13.7983C66.0137 11.7036 64.8787 10.5414 62.7422 10.5414ZM72.3641 18.6176C70.4683 18.6176 69.2398 17.2023 69.2398 15.2809C69.2398 13.2784 70.4945 11.8507 72.4714 11.8507C74.3397 11.8507 75.5957 13.1986 75.5957 15.175C75.5957 17.2023 74.3011 18.6176 72.3641 18.6176ZM72.4191 12.9043C71.3777 12.9043 70.7105 13.878 70.7105 15.2397C70.7105 16.5751 71.3914 17.5489 72.4054 17.5489C73.4193 17.5489 74.1003 16.5078 74.1003 15.2121C74.1003 13.8918 73.433 12.9043 72.4191 12.9043ZM86.4063 11.9841L84.3771 18.4704H83.055L82.2144 15.6536C82.0054 14.9646 81.8314 14.2655 81.693 13.5589H81.6655C81.5596 14.2659 81.3587 14.9742 81.1455 15.6536L80.2512 18.4704H78.9154L77.0059 11.9841H78.4875L79.2222 15.0677C79.3955 15.8022 79.5413 16.4954 79.6624 17.1501H79.6899C79.7959 16.604 79.9692 15.9218 80.2237 15.0815L81.1455 11.9855H82.3203L83.2022 15.0155C83.4154 15.7499 83.5888 16.4706 83.7236 17.1514H83.7621C83.8557 16.4844 84.0029 15.776 84.2024 15.0155L84.9907 11.9855L86.4063 11.9841ZM93.8766 18.4704H92.4348V14.7459C92.4348 13.5988 91.9946 13.0239 91.1265 13.0239C90.2721 13.0239 89.6847 13.7584 89.6847 14.6125V18.4704H88.2429V13.8381C88.2429 13.2646 88.2292 12.6498 88.1893 11.9828H89.4577L89.5251 12.984H89.565C89.953 12.2908 90.7399 11.8507 91.6217 11.8507C92.9837 11.8507 93.878 12.8919 93.878 14.5863L93.8766 18.4704ZM97.8525 18.4704H96.4093V9.00781H97.8525V18.4704ZM103.109 18.6176C101.215 18.6176 99.9849 17.2023 99.9849 15.2809C99.9849 13.2784 101.24 11.8507 103.215 11.8507C105.085 11.8507 106.339 13.1986 106.339 15.175C106.341 17.2023 105.045 18.6176 103.109 18.6176ZM103.163 12.9043C102.121 12.9043 101.454 13.878 101.454 15.2397C101.454 16.5751 102.137 17.5489 103.148 17.5489C104.163 17.5489 104.843 16.5078 104.843 15.2121C104.844 13.8918 104.178 12.9043 103.163 12.9043ZM112.024 18.4704L111.919 17.7236H111.881C111.441 18.3246 110.798 18.6176 109.984 18.6176C108.821 18.6176 107.996 17.8034 107.996 16.7086C107.996 15.1076 109.384 14.2796 111.787 14.2796V14.16C111.787 13.3059 111.335 12.8781 110.441 12.8781C109.801 12.8781 109.24 13.039 108.746 13.3595L108.453 12.4119C109.052 12.0378 109.801 11.8507 110.68 11.8507C112.375 11.8507 113.231 12.7447 113.231 14.5341V16.9231C113.231 17.5778 113.259 18.0853 113.324 18.4718L112.024 18.4704ZM111.826 15.2397C110.225 15.2397 109.421 15.6275 109.421 16.5476C109.421 17.2284 109.835 17.5613 110.41 17.5613C111.144 17.5613 111.826 17.0015 111.826 16.2409V15.2397ZM120.232 18.4704L120.164 17.4293H120.124C119.71 18.216 119.014 18.6176 118.042 18.6176C116.477 18.6176 115.319 17.2422 115.319 15.307C115.319 13.2784 116.52 11.8493 118.16 11.8493C119.028 11.8493 119.643 12.1423 119.99 12.731H120.018V9.00781H121.462V16.7223C121.462 17.3495 121.477 17.9368 121.515 18.4704H120.232ZM120.018 14.6537C120.018 13.746 119.417 12.9717 118.5 12.9717C117.431 12.9717 116.777 13.9193 116.777 15.2534C116.777 16.5614 117.455 17.4568 118.471 17.4568C119.377 17.4568 120.018 16.6687 120.018 15.7348V14.6537ZM130.612 18.6176C128.717 18.6176 127.489 17.2023 127.489 15.2809C127.489 13.2784 128.743 11.8507 130.719 11.8507C132.589 11.8507 133.843 13.1986 133.843 15.175C133.845 17.2023 132.55 18.6176 130.612 18.6176ZM130.665 12.9043C129.625 12.9043 128.958 13.878 128.958 15.2397C128.958 16.5751 129.639 17.5489 130.652 17.5489C131.667 17.5489 132.346 16.5078 132.346 15.2121C132.349 13.8918 131.682 12.9043 130.665 12.9043ZM141.597 18.4704H140.154V14.7459C140.154 13.5988 139.714 13.0239 138.845 13.0239C137.991 13.0239 137.405 13.7584 137.405 14.6125V18.4704H135.962V13.8381C135.962 13.2646 135.948 12.6498 135.908 11.9828H137.177L137.244 12.984H137.284C137.671 12.2908 138.459 11.8493 139.339 11.8493C140.701 11.8493 141.597 12.8905 141.597 14.585V18.4704ZM151.297 13.0652H149.711V16.2148C149.711 17.0166 149.989 17.4169 150.55 17.4169C150.805 17.4169 151.018 17.3894 151.19 17.3495L151.23 18.4443C150.951 18.5516 150.576 18.6052 150.111 18.6052C148.975 18.6052 148.295 17.978 148.295 16.3358V13.0652H147.349V11.9841H148.295V10.7958L149.711 10.3681V11.9828H151.297V13.0652ZM158.93 18.4704H157.49V14.7734C157.49 13.6126 157.051 13.0253 156.181 13.0253C155.434 13.0253 154.738 13.5328 154.738 14.5602V18.4704H153.298V9.00781H154.738V12.9043H154.767C155.221 12.1973 155.879 11.8493 156.718 11.8493C158.091 11.8493 158.93 12.9166 158.93 14.6125V18.4704ZM166.75 15.5739H162.423C162.45 16.8021 163.264 17.4953 164.467 17.4953C165.107 17.4953 165.696 17.388 166.216 17.1886L166.44 18.1898C165.827 18.4567 165.104 18.5901 164.264 18.5901C162.234 18.5901 161.033 17.3082 161.033 15.3208C161.033 13.332 162.263 11.837 164.101 11.837C165.759 11.837 166.799 13.0652 166.799 14.9206C166.809 15.1395 166.792 15.3588 166.75 15.5739ZM165.428 14.5465C165.428 13.5452 164.923 12.8382 164.001 12.8382C163.173 12.8382 162.518 13.5589 162.424 14.5465H165.428Z" fill="white"></path><defs><linearGradient id="paint0_linear_11195_93979" x1="136.191" y1="55.146" x2="136.191" y2="-143.211" gradientUnits="userSpaceOnUse"><stop stop-color="#1A1A1A" stop-opacity="0.1"></stop><stop offset="0.123" stop-color="#212121" stop-opacity="0.151"></stop><stop offset="0.308" stop-color="#353535" stop-opacity="0.227"></stop><stop offset="0.532" stop-color="#575757" stop-opacity="0.318"></stop><stop offset="0.783" stop-color="#858585" stop-opacity="0.421"></stop><stop offset="1" stop-color="#B3B3B3" stop-opacity="0.51"></stop></linearGradient></defs></svg>